<svg width="25" height="25" viewBox="0 0 25 25" fill="none" xmlns="http://www.w3.org/2000/svg">
<path d="M12.0548 19.2112C8.72667 19.2194 6.0482 16.5541 6.03998 13.226C6.03181 9.92132 8.69702 7.21941 12.0251 7.21119C15.3298 7.20303 18.0318 9.89167 18.0399 13.1963C18.0482 16.5245 15.3595 19.203 12.0548 19.2112ZM14.6857 12.1031L14.6622 12.1031C14.8961 11.8916 14.8952 11.5401 14.6603 11.3063C14.4488 11.0958 14.0972 11.0967 13.8868 11.3082L11.2918 13.9396L10.1875 12.8407C9.95252 12.607 9.60096 12.6078 9.3906 12.8427C9.15675 13.0542 9.15762 13.4058 9.39252 13.6162L10.8962 15.1124C11.1077 15.3463 11.4593 15.3454 11.6931 15.1105L14.6857 12.1031Z" fill="white"/>
</svg>
