<svg width="25" height="25" viewBox="0 0 25 25" fill="none" xmlns="http://www.w3.org/2000/svg">
<path d="M15.9056 11.9101L15.6484 12.1686L15.1107 12.709L10.3179 17.5255C10.1776 17.6665 9.9904 17.7841 9.77964 17.855L6.75836 18.7296C6.57103 18.8004 6.35998 18.754 6.21895 18.5903C6.05454 18.4501 6.00714 18.2393 6.07699 18.0516L6.93676 15.0495C7.00656 14.8384 7.12322 14.6271 7.2635 14.4862L12.0563 9.66962L12.594 9.12923L12.8512 8.87078L13.65 9.66568L15.1068 11.1152L15.9056 11.9101ZM8.29614 15.0461L8.06234 15.2811C8.03896 15.3046 8.03902 15.328 8.01564 15.3515L7.43468 17.3686L9.44885 16.7776C9.47223 16.7542 9.49567 16.7541 9.51905 16.7306L9.75285 16.4956L8.67472 16.4983C8.46379 16.4988 8.29932 16.3352 8.2988 16.1242L8.29614 15.0461ZM16.644 7.19734L17.5603 8.10914C18.1477 8.69363 18.15 9.65456 17.5655 10.2419L17.2382 10.5709L16.7005 11.1113L16.4433 11.3697L15.6445 10.5748L14.1878 9.12529L13.3889 8.33039L13.6461 8.07194L14.1838 7.53154L14.5112 7.20261C15.0956 6.61523 16.0566 6.61285 16.644 7.19734Z" fill="white"/>
</svg>
