<svg width="24" height="25" viewBox="0 0 24 25" fill="none" xmlns="http://www.w3.org/2000/svg">
<path d="M19.875 16.239C19.875 16.9773 19.3828 17.6101 18.75 17.8562V20.1765H19.0312C19.4883 20.1765 19.875 20.5632 19.875 21.0203C19.875 21.5125 19.4883 21.864 19.0312 21.864H6.9375C5.35547 21.864 4.125 20.6335 4.125 19.0515V6.67651C4.125 5.12964 5.35547 3.86401 6.9375 3.86401H18.1875C19.1016 3.86401 19.875 4.63745 19.875 5.55151V16.239ZM17.0625 20.1765V17.9265H6.9375C6.30469 17.9265 5.8125 18.4539 5.8125 19.0515C5.8125 19.6843 6.30469 20.1765 6.9375 20.1765H17.0625ZM18.1875 16.239V5.55151H6.9375C6.30469 5.55151 5.8125 6.07886 5.8125 6.67651V16.4851C6.12891 16.3445 6.51562 16.239 6.9375 16.239H18.1875ZM9.46875 9.48901C8.97656 9.48901 8.625 9.13745 8.625 8.64526C8.625 8.18823 8.97656 7.80151 9.46875 7.80151H15.6562C16.1133 7.80151 16.5 8.18823 16.5 8.64526C16.5 9.13745 16.1133 9.48901 15.6562 9.48901H9.46875ZM9.46875 12.3015C8.97656 12.3015 8.625 11.95 8.625 11.4578C8.625 11.0007 8.97656 10.614 9.46875 10.614H15.6562C16.1133 10.614 16.5 11.0007 16.5 11.4578C16.5 11.95 16.1133 12.3015 15.6562 12.3015H9.46875Z" fill="#6B7280"/>
</svg>
