<svg width="25" height="25" viewBox="0 0 25 25" fill="none" xmlns="http://www.w3.org/2000/svg">
<path d="M5.28345 10.4444C5.27939 8.80379 6.61197 7.44112 8.27602 7.43701L8.289 12.687L5.289 12.6944L5.28345 10.4444ZM5.2992 16.8194L5.29086 13.4444L8.29085 13.437L8.30197 17.937L6.42697 17.9416C5.79416 17.9432 5.30076 17.4522 5.2992 16.8194ZM15.0408 13.4203L15.0519 17.9203L9.05196 17.9351L9.04085 13.4351L10.5408 13.4314L10.5427 14.1814C10.5437 14.6033 10.8727 14.9306 11.2945 14.9296L12.7945 14.9259C13.193 14.9249 13.5437 14.5959 13.5427 14.174L13.5408 13.424L15.0408 13.4203ZM17.6769 17.9138L15.8019 17.9184L15.7908 13.4185L18.7908 13.411L18.7992 16.786C18.8007 17.4188 18.2863 17.9123 17.6769 17.9138ZM18.7834 10.4111L18.789 12.661L15.789 12.6685L15.776 7.41848C17.4166 7.41442 18.7794 8.77043 18.7834 10.4111ZM15.039 12.6703L13.539 12.674L13.5371 11.924C13.5361 11.5256 13.1837 11.1749 12.7853 11.1759L11.2853 11.1796C10.8634 11.1806 10.5362 11.533 10.5371 11.9314L10.539 12.6814L9.03899 12.6851L9.02602 7.43515L15.026 7.42033L15.039 12.6703ZM12.4131 12.3018L12.4168 13.8018C12.4173 14.0127 12.2302 14.1773 12.0427 14.1777C11.8318 14.1782 11.6673 14.0146 11.6668 13.8036L11.6631 12.3037C11.6626 12.1162 11.8262 11.9282 12.0371 11.9277C12.2246 11.9273 12.4126 12.1143 12.4131 12.3018Z" fill="#6B7280"/>
</svg>
